{"title":"Star Trek III -The Search for Spock (1984)-DvdRip x264 [=Faith=]","uid":12010715,"size":1703700297,"categoryP":"video","categoryS":"movies","magnet":"?xt=urn:btih:c6e77acf877a9d4a692aa904cbdc70ab80887572&amp;dn=Star+Trek+III+-The+Search+for+Spock+%281984%29-DvdRip+x264+%5B%3DFaith%3D%5D&amp;tr=udp%3A%2F%2Ftracker.openbittorrent.com%3A80&amp;tr=udp%3A%2F%2Fopen.demonii.com%3A1337&amp;tr=udp%3A%2F%2Ftracker.coppersurfer.tk%3A6969&amp;tr=udp%3A%2F%2Fexodus.desync.com%3A6969","seeders":0,"leechers":1,"uploader":"Faithwyn","files":6,"time":1434105112,"description":" Star Trek II -The Search for Spock\n\n\n\nAdmiral Kirk and his bridge crew risk their careers stealing the decommissioned Enterprise to return to the restricted Genesis planet \nto recover Spock's body.\n\n\nThe Film:\n\nDirected by: Leonard Nimoy\nProduced by: Harve Bennett\nWritten by: Harve Bennett\nBased on: Star Trek by Gene Roddenberry\nStars: William Shatner, Leonard Nimoy, DeForest Kelley,\nJames Doohan Walter Koenig, Nichelle Nichols, George Takei,\nRobin Curtis, Merritt Butrick, Christopher Lloyd, Mark Lenard\nMusic by: James Horner\nCinematography: Charles Correll\nEdited by: Robert F. Shugrue\nDistributed by: Paramount Pictures\nRelease date: June 1, 1984\nRunning time: 105 minutes\nCountry: United States\nLanguages: English, French, Spanish, Portuguese\nSubtitles: English, French, Spanish, Portuguese\nIMDB Rating: 6.6\n\n\nGeneral:\n\nComplete name : Star Trek III - The Search for Spock.m4v\nFormat : MPEG-4\nFormat profile : Base Media / Version 2\nCodec ID : mp42\nFile size : 1.59 GiB\nDuration : 1h 45mn\nOverall bit rate mode : Variable\nOverall bit rate : 2 158 Kbps\nEncoded date : UTC 2015-06-11 12:02:06\nTagged date : UTC 2015-06-11 12:54:28\nWriting application : HandBrake 0.9.9\n\n\nVideo:\n\nID : 1\nFormat : AVC\nFormat/Info : Advanced Video Codec\nFormat profile : &lt;a class=&quot;__cf_email__&quot; href=&quot;/cdn-cgi/l/email-protection&quot; data-cfemail=&quot;99d1f0fef1d9d5adb7a8&quot;&gt;[email&amp;#160;protected]&lt;/a&gt;&lt;script data-cfhash='f9e31' type=&quot;text/javascript&quot;&gt;\n/* &lt;![CDATA[ */!function(){try{var t=&quot;currentScript&quot;in document?document.currentScript:function(){for(var t=document.getElementsByTagName(&quot;script&quot;),e=t.length;e--;)if(t[e].getAttribute(&quot;data-cfhash&quot;))return t[e]}();if(t&amp;&amp;t.previousSibling){var e,r,n,i,c=t.previousSibling,a=c.getAttribute(&quot;data-cfemail&quot;);if(a){for(e=&quot;&quot;,r=parseInt(a.substr(0,2),16),n=2;a.length-n;n+=2)i=parseInt(a.substr(n,2),16)^r,e+=String.fromCharCode(i);e=document.createTextNode(e),c.parentNode.replaceChild(e,c)}t.parentNode.removeChild(t);}}catch(u){}}()/* ]]&gt; */&lt;/script&gt;\nFormat settings, CABAC : Yes\nFormat settings, ReFrames : 8 frames\nCodec ID : avc1\nCodec ID/Info : Advanced Video Coding\nDuration : 1h 45mn\nBit rate : 1 118 Kbps\nWidth : 720 pixels\nHeight : 368 pixels\nDisplay aspect ratio : 2.35:1\nOriginal display aspect ratio : 2.35:1\nFrame rate mode : Variable\nFrame rate : 23.976 fps\nMinimum frame rate : 19.084 fps\nMaximum frame rate : 29.970 fps\nColor space : YUV\nChroma subsampling : 4:2:0\nBit depth : 8 bits\nScan type : Progressive\nBits/(Pixel*Frame) : 0.176\nStream size : 842 MiB (52%)\nWriting library : x264 core 130 r2273 b3065e6\nEncoding settings : (see .nfo file for details)\nEncoded date : UTC 2015-06-11 12:02:06\nTagged date : UTC 2015-06-11 12:54:28\nColor primaries : BT.601 NTSC\nTransfer characteristics : BT.709\nMatrix coefficients : BT.601\n\n\nAudio:\n\nID : 2\nFormat : AC-3\nFormat/Info : Audio Coding 3\nMode extension : CM (complete main)\nFormat settings, Endianness : Big\nCodec ID : ac-3\nDuration : 1h 45mn\nBit rate mode : Constant\nBit rate : 448 Kbps\nChannel(s) : 6 channels\nChannel positions : Front: L C R, Side: L R, LFE\nSampling rate : 48.0 KHz\nBit depth : 16 bits\nCompression mode : Lossy\nStream size : 337 MiB (21%)\nLanguage : English\n\nSee .nfo file for additional audio and subtitle info!","torrent":{"xt":"urn:btih:c6e77acf877a9d4a692aa904cbdc70ab80887572","amp;dn":"Star+Trek+III+-The+Search+for+Spock+%281984%29-DvdRip+x264+%5B%3DFaith%3D%5D","amp;tr":["udp%3A%2F%2Ftracker.openbittorrent.com%3A80","udp%3A%2F%2Fopen.demonii.com%3A1337","udp%3A%2F%2Ftracker.coppersurfer.tk%3A6969","udp%3A%2F%2Fexodus.desync.com%3A6969"],"infoHash":"c6e77acf877a9d4a692aa904cbdc70ab80887572","infoHashBuffer":{"type":"Buffer","data":[198,231,122,207,135,122,157,74,105,42,169,4,203,220,112,171,128,136,117,114]},"announce":[],"urlList":[]}}